<mxfile host="app.diagrams.net" modified="2023-04-12T17:43:06.621Z" agent="Mozilla/5.0 (Windows NT 10.0; Win64; x64) AppleWebKit/537.36 (KHTML, like Gecko) Chrome/112.0.0.0 Safari/537.36" etag="XEi-bN1rVkWs5gBsPMWY" version="21.1.5" type="device">
  <diagram name="Page-1" id="budbj4HxND0KBTnPVzcD">
    <mxGraphModel dx="538" dy="252" grid="1" gridSize="10" guides="1" tooltips="1" connect="1" arrows="1" fold="1" page="1" pageScale="1" pageWidth="850" pageHeight="1100" math="0" shadow="0">
      <root>
        <mxCell id="0" />
        <mxCell id="1" parent="0" />
        <mxCell id="gxQlBpZ1V1zzJ_aXBTPg-1" value="" style="rounded=0;whiteSpace=wrap;html=1;" vertex="1" parent="1">
          <mxGeometry x="360" y="260" width="120" height="60" as="geometry" />
        </mxCell>
        <mxCell id="gxQlBpZ1V1zzJ_aXBTPg-4" style="edgeStyle=orthogonalEdgeStyle;rounded=0;orthogonalLoop=1;jettySize=auto;html=1;entryX=0;entryY=0.5;entryDx=0;entryDy=0;startArrow=block;startFill=1;" edge="1" parent="1" source="gxQlBpZ1V1zzJ_aXBTPg-2" target="gxQlBpZ1V1zzJ_aXBTPg-3">
          <mxGeometry relative="1" as="geometry" />
        </mxCell>
        <mxCell id="gxQlBpZ1V1zzJ_aXBTPg-6" style="rounded=0;orthogonalLoop=1;jettySize=auto;html=1;edgeStyle=orthogonalEdgeStyle;startArrow=classic;startFill=1;" edge="1" parent="1" source="gxQlBpZ1V1zzJ_aXBTPg-2" target="gxQlBpZ1V1zzJ_aXBTPg-5">
          <mxGeometry relative="1" as="geometry" />
        </mxCell>
        <mxCell id="gxQlBpZ1V1zzJ_aXBTPg-8" style="edgeStyle=orthogonalEdgeStyle;rounded=0;orthogonalLoop=1;jettySize=auto;html=1;entryX=1;entryY=0.5;entryDx=0;entryDy=0;startArrow=classic;startFill=1;" edge="1" parent="1" source="gxQlBpZ1V1zzJ_aXBTPg-2" target="gxQlBpZ1V1zzJ_aXBTPg-7">
          <mxGeometry relative="1" as="geometry" />
        </mxCell>
        <mxCell id="gxQlBpZ1V1zzJ_aXBTPg-2" value="Homepage" style="rounded=0;whiteSpace=wrap;html=1;" vertex="1" parent="1">
          <mxGeometry x="360" y="260" width="120" height="60" as="geometry" />
        </mxCell>
        <mxCell id="gxQlBpZ1V1zzJ_aXBTPg-3" value="Graph" style="rounded=0;whiteSpace=wrap;html=1;" vertex="1" parent="1">
          <mxGeometry x="570" y="260" width="120" height="60" as="geometry" />
        </mxCell>
        <mxCell id="gxQlBpZ1V1zzJ_aXBTPg-13" style="edgeStyle=orthogonalEdgeStyle;rounded=0;orthogonalLoop=1;jettySize=auto;html=1;startArrow=classic;startFill=1;" edge="1" parent="1" source="gxQlBpZ1V1zzJ_aXBTPg-5" target="gxQlBpZ1V1zzJ_aXBTPg-7">
          <mxGeometry relative="1" as="geometry" />
        </mxCell>
        <mxCell id="gxQlBpZ1V1zzJ_aXBTPg-14" style="edgeStyle=orthogonalEdgeStyle;rounded=0;orthogonalLoop=1;jettySize=auto;html=1;entryX=0.5;entryY=1;entryDx=0;entryDy=0;startArrow=classic;startFill=1;" edge="1" parent="1" source="gxQlBpZ1V1zzJ_aXBTPg-5" target="gxQlBpZ1V1zzJ_aXBTPg-3">
          <mxGeometry relative="1" as="geometry" />
        </mxCell>
        <mxCell id="gxQlBpZ1V1zzJ_aXBTPg-5" value="About" style="rounded=0;whiteSpace=wrap;html=1;" vertex="1" parent="1">
          <mxGeometry x="360" y="400" width="120" height="60" as="geometry" />
        </mxCell>
        <mxCell id="gxQlBpZ1V1zzJ_aXBTPg-15" style="edgeStyle=orthogonalEdgeStyle;rounded=0;orthogonalLoop=1;jettySize=auto;html=1;startArrow=classic;startFill=1;" edge="1" parent="1" source="gxQlBpZ1V1zzJ_aXBTPg-7">
          <mxGeometry relative="1" as="geometry">
            <mxPoint x="630" y="260" as="targetPoint" />
            <Array as="points">
              <mxPoint x="220" y="200" />
              <mxPoint x="630" y="200" />
              <mxPoint x="630" y="260" />
            </Array>
          </mxGeometry>
        </mxCell>
        <mxCell id="gxQlBpZ1V1zzJ_aXBTPg-7" value="Gauge" style="rounded=0;whiteSpace=wrap;html=1;" vertex="1" parent="1">
          <mxGeometry x="160" y="260" width="120" height="60" as="geometry" />
        </mxCell>
      </root>
    </mxGraphModel>
  </diagram>
</mxfile>
